<svg xmlns="http://www.w3.org/2000/svg" width="1080" height="1080" xmlns:v="https://vecta.io/nano"><defs><clipPath id="A"><path d="M0 0h1080v1080H0z"/></clipPath></defs><g clip-path="url(#A)"><path d="M530 747.4h132.974l55.262 117.432H588.715z" fill="#ff5600"/><g fill="#949599"><path d="M21.45 865.107l350.568-699.41 226.229 450.731h-134.7l-91.529-172.694-215.867 421.373zm934.569-581.126l57.442-124.558-273.833 4.483c-63.723 1.27-128.545 68.428-128.545 68.428s-28.7 34.5-41.479 74.624-6.047 100.371-6.047 100.371a197.86 197.86 0 0 0 21.86 56.232c16.639 28.57 20.124 33.8 49.589 58.745s69.41 41.145 69.41 41.145 22.609 7.74 36.349 8.342 19.953 0 19.953 0H861.09a88.71 88.71 0 0 1 29.73 13.124c14.209 9.977 27.549 31.485 27.549 31.485a81.03 81.03 0 0 1 8.587 28.265c1.7 16.057.05 26.662-6.44 44.723s-11.635 23.305-27.549 35.778-36.11 14.113-36.11 14.113h-102.79l58.046 122.744s36.855 5.284 65.123 1.354 37.093-7.725 61.15-19.737a179.08 179.08 0 0 0 39.356-26.476s20.293-17.788 35.42-40.787 15.866-28 25.089-51.21 7.256-21.233 9.674-44.007 2.419-22.77 0-47.089-1.76-24.061-11.132-49.154-12.646-28.573-27.549-50.447-15.478-19.124-36.494-36.851-22.159-18.682-49.016-31.127c-16.035-7.463-33.15-12.342-50.71-14.456 0 0-30.239-2.811-65.926-2.717h-38.64c-8.648-.053-16.9.214-23.971-1.431-45.134-10.5-52.094-40.559-52.094-40.559s-9.787-20.352-8.729-44.235 2.581-28.88 16.1-48.658 37.977-30.457 37.977-30.457z"/></g></g></svg>