<?xml version="1.0" encoding="utf-8"?>
<!-- Generator: Adobe Illustrator 19.2.1, SVG Export Plug-In . SVG Version: 6.00 Build 0)  -->
<svg version="1.1" id="layer" xmlns="http://www.w3.org/2000/svg" xmlns:xlink="http://www.w3.org/1999/xlink" x="0px" y="0px"
	 viewBox="0 0 652 652" style="enable-background:new 0 0 652 652;" xml:space="preserve">
<style type="text/css">
	.st0{clip-path:url(#SVGID_2_);fill:url(#SVGID_3_);}
	.st1{opacity:0.36;}
	.st2{clip-path:url(#SVGID_5_);}
	.st3{filter:url(#Adobe_OpacityMaskFilter);}
	.st4{clip-path:url(#SVGID_7_);fill:url(#SVGID_9_);}
	.st5{clip-path:url(#SVGID_7_);mask:url(#SVGID_8_);fill:url(#SVGID_10_);}
	.st6{clip-path:url(#SVGID_12_);fill:url(#SVGID_13_);}
	.st7{clip-path:url(#SVGID_15_);fill:url(#SVGID_16_);}
	.st8{clip-path:url(#SVGID_18_);fill:url(#SVGID_19_);}
	.st9{clip-path:url(#SVGID_21_);fill:url(#SVGID_22_);}
	.st10{fill:url(#SVGID_23_);}
	.st11{clip-path:url(#SVGID_25_);fill:url(#SVGID_26_);}
	.st12{fill-rule:evenodd;clip-rule:evenodd;fill:#EE5143;}
</style>
<g>
	<defs>
		<path id="SVGID_1_" d="M27.5,299.7c0,0,11.3-3.1,16.4-3.1c13.1,0,36.4,19,51.1,28.4c22.1,14.2,29.7,19.3,44.4,19.3
			c20.1,0,26.5-11.5,26.5-11.5c0,0-3.4,4.1-14.8,4.1c-15.7,0-27.5-9.6-44.6-21.9c-17-12.2-36.8-24.6-52.8-24.6
			C34.5,290.4,27.5,299.7,27.5,299.7"/>
	</defs>
	<clipPath id="SVGID_2_">
		<use xlink:href="#SVGID_1_"  style="overflow:visible;"/>
	</clipPath>
	
		<linearGradient id="SVGID_3_" gradientUnits="userSpaceOnUse" x1="-268.0909" y1="726.4462" x2="-260.8573" y2="726.4462" gradientTransform="matrix(19.1355 0 0 -19.1355 5157.5444 14218.2979)">
		<stop  offset="0" style="stop-color:#F9AD4F"/>
		<stop  offset="0.1029" style="stop-color:#F9A94F"/>
		<stop  offset="0.2158" style="stop-color:#F79B4E"/>
		<stop  offset="0.3334" style="stop-color:#F5854C"/>
		<stop  offset="0.4535" style="stop-color:#F2674B"/>
		<stop  offset="0.5345" style="stop-color:#EF4E49"/>
		<stop  offset="0.6075" style="stop-color:#F15D48"/>
		<stop  offset="0.7562" style="stop-color:#F47645"/>
		<stop  offset="0.8914" style="stop-color:#F58644"/>
		<stop  offset="1" style="stop-color:#F68B43"/>
	</linearGradient>
	<rect x="27.5" y="290.4" class="st0" width="138.4" height="53.8"/>
</g>
<g>
	<g class="st1">
		<g>
			<defs>
				<rect id="SVGID_4_" x="92.4" y="305.5" width="23.8" height="32.6"/>
			</defs>
			<clipPath id="SVGID_5_">
				<use xlink:href="#SVGID_4_"  style="overflow:visible;"/>
			</clipPath>
			<g class="st2">
				<defs>
					<path id="SVGID_6_" d="M92.4,323.3c0.9,0.6,1.8,1.2,2.6,1.7c9,5.8,15.6,10,21.2,13.1v-16c-3.1-2.2-6.3-4.5-9.7-7
						c-4.5-3.3-9.3-6.5-14.1-9.6V323.3z"/>
				</defs>
				<clipPath id="SVGID_7_">
					<use xlink:href="#SVGID_6_"  style="overflow:visible;"/>
				</clipPath>
				<defs>
					<filter id="Adobe_OpacityMaskFilter" filterUnits="userSpaceOnUse" x="92.4" y="305.5" width="23.8" height="32.6">
						<feColorMatrix  type="matrix" values="1 0 0 0 0  0 1 0 0 0  0 0 1 0 0  0 0 0 1 0"/>
					</filter>
				</defs>
				<mask maskUnits="userSpaceOnUse" x="92.4" y="305.5" width="23.8" height="32.6" id="SVGID_8_">
					<g class="st3">
						
							<linearGradient id="SVGID_9_" gradientUnits="userSpaceOnUse" x1="-246.7104" y1="626.8615" x2="-239.477" y2="626.8615" gradientTransform="matrix(3.2909 0 0 -3.2909 904.3183 2384.7175)">
							<stop  offset="0" style="stop-color:#000000"/>
							<stop  offset="0.1126" style="stop-color:#383838"/>
							<stop  offset="0.4095" style="stop-color:#C6C6C6"/>
							<stop  offset="0.5392" style="stop-color:#FFFFFF"/>
							<stop  offset="0.5813" style="stop-color:#F9F9F9"/>
							<stop  offset="0.6393" style="stop-color:#E7E7E7"/>
							<stop  offset="0.7066" style="stop-color:#CACACA"/>
							<stop  offset="0.7808" style="stop-color:#A1A1A1"/>
							<stop  offset="0.8608" style="stop-color:#6D6D6D"/>
							<stop  offset="0.9442" style="stop-color:#2E2E2E"/>
							<stop  offset="1" style="stop-color:#000000"/>
						</linearGradient>
						<rect x="92.4" y="305.5" class="st4" width="23.8" height="32.6"/>
					</g>
				</mask>
				
					<linearGradient id="SVGID_10_" gradientUnits="userSpaceOnUse" x1="-246.7104" y1="626.8615" x2="-239.4768" y2="626.8615" gradientTransform="matrix(3.2909 0 0 -3.2909 904.3183 2384.7175)">
					<stop  offset="0" style="stop-color:#FFFFFF"/>
					<stop  offset="3.662513e-002" style="stop-color:#E7E7E7"/>
					<stop  offset="0.1409" style="stop-color:#A7A9A9"/>
					<stop  offset="0.2405" style="stop-color:#727575"/>
					<stop  offset="0.3328" style="stop-color:#494C4D"/>
					<stop  offset="0.4162" style="stop-color:#2B2F30"/>
					<stop  offset="0.4877" style="stop-color:#191D1E"/>
					<stop  offset="0.5392" style="stop-color:#131718"/>
					<stop  offset="0.6052" style="stop-color:#171B1C"/>
					<stop  offset="0.666" style="stop-color:#222626"/>
					<stop  offset="0.7248" style="stop-color:#343839"/>
					<stop  offset="0.7823" style="stop-color:#4F5253"/>
					<stop  offset="0.8388" style="stop-color:#717374"/>
					<stop  offset="0.8947" style="stop-color:#9A9C9C"/>
					<stop  offset="0.949" style="stop-color:#CACBCC"/>
					<stop  offset="1" style="stop-color:#FFFFFF"/>
				</linearGradient>
				<rect x="92.4" y="305.5" class="st5" width="23.8" height="32.6"/>
			</g>
		</g>
	</g>
</g>
<g>
	<defs>
		<path id="SVGID_11_" d="M97.5,324v41.4c0,14.2,14.2,12.3,14.2,12.3s0.1-25.8,0.1-41.1c0-15.3,0.7-31.3,25-42.3
			c2.2-1,4.2-0.9,6.3-0.8c0.8,0,1.6,0.1,2.4,0.1c9.8-0.3,18.1,3.7,18.1,3.7s-10.3-11.8-28.8-11.8C116.3,285.5,97.5,300.8,97.5,324"
			/>
	</defs>
	<clipPath id="SVGID_12_">
		<use xlink:href="#SVGID_11_"  style="overflow:visible;"/>
	</clipPath>
	
		<linearGradient id="SVGID_13_" gradientUnits="userSpaceOnUse" x1="-303.8016" y1="738.5472" x2="-296.5682" y2="738.5472" gradientTransform="matrix(0 -12.731 -12.731 0 9532.9824 -3490.1709)">
		<stop  offset="0" style="stop-color:#EE5143"/>
		<stop  offset="0.2377" style="stop-color:#F37C48"/>
		<stop  offset="0.5436" style="stop-color:#FAB04D"/>
		<stop  offset="0.6881" style="stop-color:#F7954A"/>
		<stop  offset="0.9964" style="stop-color:#EE5243"/>
		<stop  offset="1" style="stop-color:#EE5143"/>
	</linearGradient>
	<rect x="97.5" y="285.5" class="st6" width="66.1" height="94"/>
</g>
<g>
	<defs>
		<path id="SVGID_14_" d="M50.4,268.7c0,0,25.6,14.9,27.6,19.4c1.2,2.6,2.2,6.1,2.2,11.7c0,25.8-23.2,37.9-36.7,37.9
			c-11.1,0-17.3-6.9-17.3-6.9s12,13.4,30.7,13.4c23.6,0,37.8-20.5,37.8-35.5c0-11.9-5.7-20.2-10.5-26.1c-10.4-12.8-26.2-14-31.8-14
			C51.2,268.6,50.4,268.7,50.4,268.7"/>
	</defs>
	<clipPath id="SVGID_15_">
		<use xlink:href="#SVGID_14_"  style="overflow:visible;"/>
	</clipPath>
	
		<linearGradient id="SVGID_16_" gradientUnits="userSpaceOnUse" x1="-235.8308" y1="751.2471" x2="-228.5974" y2="751.2471" gradientTransform="matrix(0 10.522 10.522 0 -7844.124 2749.7932)">
		<stop  offset="0" style="stop-color:#EE5143"/>
		<stop  offset="0.2377" style="stop-color:#F37C48"/>
		<stop  offset="0.5436" style="stop-color:#FAB04D"/>
		<stop  offset="0.6881" style="stop-color:#F7954A"/>
		<stop  offset="0.9964" style="stop-color:#EE5243"/>
		<stop  offset="1" style="stop-color:#EE5143"/>
	</linearGradient>
	<rect x="26.2" y="268.6" class="st7" width="68.5" height="75.6"/>
</g>
<g>
	<defs>
		<path id="SVGID_17_" d="M26.3,274.9c0,0,0.1,2,1.6,6.4c1.6,4.5,3.1,5.6,4.2,5.6c1.1,0,7-5.4,20-5.4c12.9,0,25.8,6.7,25.9,6.7
			c0-0.1-3-7.4-10-12.9c-5.2-4.1-13.2-6.5-17.7-6.5C37.3,268.7,26.3,274.9,26.3,274.9"/>
	</defs>
	<clipPath id="SVGID_18_">
		<use xlink:href="#SVGID_17_"  style="overflow:visible;"/>
	</clipPath>
	
		<linearGradient id="SVGID_19_" gradientUnits="userSpaceOnUse" x1="-283.2607" y1="691.4395" x2="-276.0273" y2="691.4395" gradientTransform="matrix(6.0644 -1.9042 -1.9042 -6.0644 3064.0168 3939.2966)">
		<stop  offset="0" style="stop-color:#5A4498"/>
		<stop  offset="0.1033" style="stop-color:#604B9C"/>
		<stop  offset="0.2502" style="stop-color:#715DA7"/>
		<stop  offset="0.4224" style="stop-color:#8D7CB9"/>
		<stop  offset="0.5" style="stop-color:#9C8CC3"/>
		<stop  offset="0.6175" style="stop-color:#8472B3"/>
		<stop  offset="0.7626" style="stop-color:#6D59A4"/>
		<stop  offset="0.8944" style="stop-color:#5F499B"/>
		<stop  offset="1" style="stop-color:#5A4498"/>
	</linearGradient>
	<polygon class="st8" points="20.8,270.4 73.4,253.9 83.6,286.4 30.9,302.9 	"/>
</g>
<g>
	<defs>
		<path id="SVGID_20_" d="M27.6,299.6c-2.7,1.5-7,9.6-7,16.2c0,5.5,2.7,17.6,15.6,20.9c10.7,2.8,17-0.7,17-0.7s-15-2.3-15-20.2
			c0-11.5,10.2-18.6,10.2-18.6s-1.8-0.7-8-0.7C36.6,296.5,31.8,297.2,27.6,299.6"/>
	</defs>
	<clipPath id="SVGID_21_">
		<use xlink:href="#SVGID_20_"  style="overflow:visible;"/>
	</clipPath>
	
		<linearGradient id="SVGID_22_" gradientUnits="userSpaceOnUse" x1="-203.9922" y1="751.3395" x2="-196.7588" y2="751.3395" gradientTransform="matrix(0 5.7398 5.7398 0 -4275.6216 1467.2583)">
		<stop  offset="0" style="stop-color:#292B66"/>
		<stop  offset="7.949600e-002" style="stop-color:#34346F"/>
		<stop  offset="0.2182" style="stop-color:#504C86"/>
		<stop  offset="0.3983" style="stop-color:#7F73AB"/>
		<stop  offset="0.5" style="stop-color:#9C8CC3"/>
		<stop  offset="0.6438" style="stop-color:#7268A1"/>
		<stop  offset="0.7996" style="stop-color:#4A4781"/>
		<stop  offset="0.9238" style="stop-color:#32336D"/>
		<stop  offset="1" style="stop-color:#292B66"/>
	</linearGradient>
	<rect x="20.6" y="296.5" class="st9" width="32.6" height="43.1"/>
</g>
<g>
	
		<linearGradient id="SVGID_23_" gradientUnits="userSpaceOnUse" x1="-266.4878" y1="660.9017" x2="-259.2544" y2="660.9017" gradientTransform="matrix(4.5475 0 0 -4.5475 1232.4015 3322.6023)">
		<stop  offset="0" style="stop-color:#292B66"/>
		<stop  offset="8.037704e-002" style="stop-color:#2E2F6A"/>
		<stop  offset="0.1794" style="stop-color:#3D3C76"/>
		<stop  offset="0.2883" style="stop-color:#56518B"/>
		<stop  offset="0.4033" style="stop-color:#796EA7"/>
		<stop  offset="0.5" style="stop-color:#9C8CC3"/>
		<stop  offset="0.5158" style="stop-color:#9586BE"/>
		<stop  offset="0.6178" style="stop-color:#6F669E"/>
		<stop  offset="0.7189" style="stop-color:#504C86"/>
		<stop  offset="0.8175" style="stop-color:#3A3A74"/>
		<stop  offset="0.9126" style="stop-color:#2D2F6A"/>
		<stop  offset="1" style="stop-color:#292B66"/>
	</linearGradient>
	<path class="st10" d="M20.6,315.8L20.6,315.8c0-6.6,4.3-14.7,7-16.2c4.2-2.3,8.9-3.1,12.8-3.1c6.2,0,7.9,0.8,7.9,0.8
		c0,0-10.2,7.1-10.2,18.6c0,17.9,15,20.2,15,20.2c0,0-3.2,1.8-8.9,1.8c-2.3,0-5-0.3-8.1-1.1C23.3,333.4,20.6,321.3,20.6,315.8
		L20.6,315.8L20.6,315.8c0,5.5,2.7,17.6,15.6,20.9c3.1,0.8,5.8,1.1,8.1,1.1c5.7,0,8.9-1.8,8.9-1.8s-15-2.3-15-20.2
		c0-11.5,10.2-18.6,10.2-18.6s-1.8-0.8-7.9-0.8c-3.9,0-8.6,0.8-12.8,3.1C24.9,301.1,20.6,309.2,20.6,315.8L20.6,315.8z"/>
</g>
<g>
	<defs>
		<path id="SVGID_24_" d="M136.4,294.5c0.1,0,18,2.7,18,20.3c0,16.2-12.5,21-12.5,21s9.8,2.9,20.1-0.4c5.4-1.7,9.5-10,9.5-19.4
			c0-5.2-2.7-14.3-7.6-18.4c-4-3.3-9.7-4.9-14.6-4.9C139.5,292.6,136.4,294.5,136.4,294.5"/>
	</defs>
	<clipPath id="SVGID_25_">
		<use xlink:href="#SVGID_24_"  style="overflow:visible;"/>
	</clipPath>
	
		<linearGradient id="SVGID_26_" gradientUnits="userSpaceOnUse" x1="-208.6725" y1="767.5056" x2="-201.4391" y2="767.5056" gradientTransform="matrix(0 6.1314 6.1314 0 -4551.9009 1572.0707)">
		<stop  offset="0" style="stop-color:#292B66"/>
		<stop  offset="7.949600e-002" style="stop-color:#34346F"/>
		<stop  offset="0.2182" style="stop-color:#504C86"/>
		<stop  offset="0.3983" style="stop-color:#7F73AB"/>
		<stop  offset="0.5" style="stop-color:#9C8CC3"/>
		<stop  offset="0.6438" style="stop-color:#7268A1"/>
		<stop  offset="0.7996" style="stop-color:#4A4781"/>
		<stop  offset="0.9238" style="stop-color:#32336D"/>
		<stop  offset="1" style="stop-color:#292B66"/>
	</linearGradient>
	<rect x="136.4" y="292.6" class="st11" width="35.1" height="46.1"/>
</g>
<g>
	<path class="st12" d="M237.1,334.6c-3.7,0-7.3,0-11,0c-2.7-0.6-4.1-2.7-4.4-6c-1.3,1.9-2.8,3.4-4.6,4.4c-5.1,3-13.7,3.3-19,0.7
		c-5.7-2.8-9.1-9.1-7.1-15.3c1.9-6.1,7.6-8.9,13.5-9.9c4.7-0.8,10.3-0.8,16.9-0.7c0.1-3.1-0.7-5.3-2.1-6.7
		c-3.2-3.6-9.9-3.2-14.2-2.2c-3.4,0.8-6.6,2.3-8.6,4L196,293c4.7-1.7,9.9-3,15.3-3c6.1-0.1,13.9,1.2,17.8,6.3c2,2.3,2.6,5.5,2.9,8.8
		c0.3,4.5,0.2,9.5,0.2,14.1c0,3,0,6,0,9c0,0.3,0.1,0.5,0.1,0.8C232.8,332.5,234.4,334.3,237.1,334.6 M221.4,314.9
		c0,4.8-1.6,8.8-5,11c-4.2,2.8-12.5,2.9-13.6-3.1c-0.3-1.8,0.3-3.9,2.2-5.4C208.9,314.4,216.8,314.7,221.4,314.9"/>
	<path class="st12" d="M340,334.6c-3.7,0-7.3,0-11,0c-2.7-0.6-4.1-2.7-4.4-6c-1.3,1.9-2.8,3.4-4.6,4.4c-5.1,3-13.7,3.3-19.1,0.7
		c-5.7-2.8-9.1-9.1-7.1-15.3c1.9-6.1,7.6-8.9,13.5-9.9c4.7-0.8,10.3-0.8,16.9-0.7c0.1-3.1-0.7-5.3-2.1-6.7
		c-3.2-3.6-9.9-3.2-14.2-2.2c-3.4,0.8-6.6,2.3-8.6,4L299,293c4.7-1.7,9.9-3,15.3-3c6.1-0.1,13.9,1.2,17.8,6.3c2,2.3,2.6,5.5,2.9,8.8
		c0.3,4.5,0.2,9.5,0.2,14.1c0,3,0,6,0,9c0,0.3,0.1,0.5,0.1,0.8C335.8,332.5,337.4,334.3,340,334.6 M324.4,314.9c0,4.8-1.6,8.8-5,11
		c-4.2,2.8-12.5,2.9-13.6-3.1c-0.3-1.8,0.3-3.9,2.2-5.4C311.8,314.4,319.8,314.7,324.4,314.9"/>
	<path class="st12" d="M276.6,290.5h12.1v44c-7.4,0.4-12.3-3.2-12.1-9V290.5z"/>
	<path class="st12" d="M277.2,271.9c-0.5-0.2-1-0.4-1.2-0.1c-0.2,0.4-0.4,0.5-0.7,0.8c-0.3,0.1,0.3,2.1,0.1,3.1
		c0,0.4,0.3,0.3,0.4,0.4c0.2,0.2,0.2,0.5,0.1,0.7c0.3,0.2,0.4,0.3,0.1,0.5c-0.2,0.3-0.1,0.5,0,0.8c0.1,0.5,0.4,0.8,0.7,1
		c0.7,0.4,1,0.2,1.8,0.8c0.3,0.3,0.5,0.7,0.7,1.3c-0.2,1.7,1.7,1.6,2.6,1.3c0.3-0.1-0.2-0.4,0-0.6c0.1-0.1,0.4-0.1,0.7-0.2
		c0.9-0.4,0.9-0.3,0.9-1c0-0.4,0-0.2,0.5-0.3c0.3,0,0-0.4,0.6-0.3c0.5,0.2,0.5,0.1,0.5-0.3c0-0.5,0.5-0.5,1-0.4
		c1.2,0.3,0.3-0.4,0.8-0.4c0.9,0,1.1-0.1,1.9-1.4c0.2-0.3,0.2-0.7,0.2-1c0.1-0.6,0.3-0.4,0.3-0.9c0.1-0.4-0.1-0.9-0.4-1.3
		c-0.4-0.6-0.4-0.5-0.7-1.2c-0.2-0.7-0.3-1-0.9-1.7c-0.5-0.7-1.3-1.3-1.9-1.9c-0.6-0.5-0.5-0.5-0.9-1c-0.1-0.1-0.2-0.2-0.3-0.2
		c-0.5-0.2-1.1-0.2-1.5-0.3c-0.2-0.1-0.4,0-0.6,0.1c-0.4,0.3-0.1,0.2-0.6,0.3c-0.2,0-0.5,0.3-0.7,0.5c-0.1,0.1-0.2,0.1-0.4,0.2
		c-0.4,0.4-0.2,0.6-0.7,0.6c-0.4,0-0.4,0-0.6,0.5c-0.1,0.3-0.2,0.6-0.6,0.6c-0.6,0-0.2,0.1-0.5,0.3c-0.1,0.1-0.3,0-0.4,0.1
		C277.5,271.6,277.5,271.9,277.2,271.9"/>
	<path class="st12" d="M238.7,333.6c0.1-3.4,1.8-6.2,4.6-7.1c1.9-0.5,3.2,0,5,0.2c3.2,0.4,6.4,0.1,8.5-0.9c3.4-1.6,3.3-5.1,0.2-7
		c-3.6-2.1-10.7-2.7-15.1-6.6c-2.7-2.4-3.9-5.7-3.7-9c0.3-5.6,4.1-9.4,9.1-11.3c5.7-2.2,13.5-2.2,22.1,0l-0.7,8.5
		c-6.2-2.2-13.9-2.6-17,0.2c-2,1.8-1.9,4.1,0.5,5.5c5.2,2.8,11.7,2.3,16.4,7.3c4.4,4.7,3.8,12.7-0.6,17.1c-3,3.1-7.6,4.5-12.4,4.9
		C250.7,335.8,244.9,335.2,238.7,333.6"/>
	<path class="st12" d="M383,293.3c4.5,3.3,5.2,7.7,5.2,13c0.1,9.6,0.1,19.1,0.1,28.7c-8.9,0.6-11.4-3-11.7-6.2l-0.1-15.5
		c0-3.1,0.1-6.9-1.3-9.8c-1.6-3.1-4.7-4.3-7.9-4.1c-5.1,0.3-8.3,3.7-9.5,8.4c-0.5,2.2-0.6,3.9-0.6,6.2l-0.2,20.5h-12v-43.7h11.3v6.8
		c2.1-3.1,5.4-5.3,9.2-6.5C371.2,289.4,378.2,289.7,383,293.3"/>
	<path class="st12" d="M490.5,334.6c-3.7,0-7.3,0-11,0c-2.7-0.6-4.1-2.7-4.4-6c-1.3,1.9-2.8,3.4-4.6,4.4c-5.1,3-13.7,3.3-19.1,0.7
		c-5.7-2.8-9.1-9.1-7.1-15.3c1.9-6.1,7.6-8.9,13.5-9.9c4.7-0.8,10.3-0.8,16.9-0.7c0.1-3.1-0.7-5.3-2.1-6.7
		c-3.2-3.6-9.9-3.2-14.2-2.2c-3.4,0.8-6.6,2.3-8.6,4l-0.3-9.9c4.7-1.7,9.9-3,15.3-3c6.1-0.1,13.9,1.2,17.8,6.3
		c2,2.3,2.6,5.5,2.9,8.8c0.3,4.5,0.2,9.5,0.2,14.1c0,3,0,6,0,9c0,0.3,0.1,0.5,0.1,0.8C486.2,332.5,487.9,334.3,490.5,334.6
		 M474.9,314.9c0,4.8-1.6,8.8-5,11c-4.2,2.8-12.5,2.9-13.6-3.1c-0.3-1.8,0.3-3.9,2.2-5.4C462.3,314.4,470.3,314.7,474.9,314.9"/>
	<path class="st12" d="M491.7,290.5h12.1v44c-7.4,0.4-12.3-3.2-12.1-9V290.5z"/>
	<path class="st12" d="M492.3,271.9c-0.5-0.2-1-0.4-1.2-0.1c-0.2,0.4-0.4,0.5-0.7,0.8c-0.3,0.1,0.3,2.1,0.1,3.1
		c0,0.4,0.3,0.3,0.4,0.4c0.2,0.2,0.2,0.5,0.1,0.7c0.2,0.2,0.4,0.3,0.1,0.5c-0.2,0.3-0.1,0.5,0,0.8c0.1,0.5,0.4,0.8,0.7,1
		c0.7,0.4,1,0.2,1.8,0.8c0.3,0.3,0.5,0.7,0.7,1.3c-0.2,1.7,1.7,1.6,2.6,1.3c0.3-0.1-0.2-0.4,0-0.6c0.1-0.1,0.4-0.1,0.7-0.2
		c0.9-0.4,0.9-0.3,0.9-1c0-0.4,0-0.2,0.5-0.3c0.3,0,0-0.4,0.6-0.3c0.5,0.2,0.5,0.2,0.5-0.3c0-0.5,0.5-0.5,1-0.4
		c1.2,0.3,0.3-0.4,0.8-0.4c0.9,0,1.1-0.1,1.9-1.4c0.2-0.3,0.2-0.7,0.2-1c0.1-0.6,0.3-0.4,0.3-0.9c0.1-0.4-0.1-0.9-0.4-1.3
		c-0.4-0.6-0.4-0.5-0.7-1.2c-0.2-0.7-0.3-1-0.9-1.7c-0.5-0.7-1.3-1.3-1.9-1.9c-0.6-0.5-0.5-0.5-0.9-1c-0.1-0.1-0.2-0.2-0.3-0.2
		c-0.5-0.2-1.1-0.2-1.5-0.3c-0.2-0.1-0.4,0-0.6,0.1c-0.4,0.3-0.1,0.2-0.6,0.3c-0.2,0-0.5,0.3-0.7,0.5c-0.1,0.1-0.2,0.1-0.4,0.2
		c-0.4,0.4-0.2,0.6-0.7,0.6c-0.4,0-0.4,0-0.6,0.5c-0.1,0.3-0.2,0.6-0.6,0.6c-0.6,0-0.2,0.1-0.5,0.3c-0.2,0.1-0.3,0-0.4,0.1
		C492.6,271.6,492.6,271.9,492.3,271.9"/>
	<path class="st12" d="M587.7,333.6c0.1-3.4,1.8-6.2,4.6-7.1c1.9-0.5,3.2,0,5,0.2c3.2,0.4,6.4,0.1,8.5-0.9c3.4-1.6,3.3-5.1,0.2-7
		c-3.6-2.1-10.7-2.7-15.1-6.6c-2.7-2.4-3.9-5.7-3.7-9c0.3-5.6,4.1-9.4,9.1-11.3c5.7-2.2,13.5-2.2,22.1,0l-0.7,8.5
		c-6.2-2.2-13.9-2.6-17,0.2c-2,1.8-1.9,4.1,0.5,5.5c5.2,2.8,11.7,2.3,16.4,7.3c4.4,4.7,3.8,12.7-0.6,17.1c-3,3.1-7.6,4.5-12.4,4.9
		C599.7,335.8,594,335.2,587.7,333.6"/>
	<path class="st12" d="M549.4,292.8c4.5,3.3,5.2,7.7,5.2,13l0.2,20.8c0,2.6,0.9,6.2,6.7,7.8l-11.9,0c-4.9-0.8-6.4-3.5-6.6-6
		l-0.1-15.5c0-3.1,0.1-6.9-1.3-9.8c-1.6-3.1-4.7-4.3-7.9-4.1c-5.1,0.3-8.3,3.7-9.5,8.4c-0.5,2.2-0.6,3.9-0.6,6.2l-0.2,20.5h-12
		v-43.7h11.3v6.8c2.1-3.1,5.4-5.3,9.2-6.5C537.5,288.9,544.6,289.2,549.4,292.8"/>
	<path class="st12" d="M571.6,277.8c-6.7-0.4-11.8,3.4-11.8,8.7l-0.2,32c-0.1,9.4,3.2,14.1,9.1,15.8c3.8,1.1,8.7,1.2,14.6-0.2
		l-0.3-9c-6.9,1.7-11.3,0-11.3-6.6v-19.3h10.8v-8.6h-10.8V277.8z"/>
	<path class="st12" d="M425.8,303.9c2.7,4.9,2.5,13.5-0.7,18.1c-3.5,5.1-11,5.8-15.3,1.3c-4.3-4.4-4.4-13.4-1.5-18.6
		C411.9,298.1,421.9,297,425.8,303.9 M407,329.5c-0.1,6.4-0.5,13.5-0.4,20.2c0,0.4,0,0.7,0,0.9c-0.2,0.9-0.5,0.6-1,1.1
		c-0.4,0.4-0.6,1.1-0.6,1.5c0.3,4.6-0.5,7.3-0.4,11.8c0,1.8-1.2,1.6-1.3,2.6c0,0.8-0.2,1.4-0.5,1.6c0-1.5,0-3,0-4.5
		c-0.3-0.1-0.2,1-0.4,1.9c-0.1,0.5,0.1,1.2-0.1,1.7c-0.2,0.7-0.2,1.7-0.3,2.4c-0.1,0.4-0.5,0.5-0.6,0c0-0.5,0-1.1,0-1.7
		c-0.3-0.2-0.5-0.7-0.6-1.6c0-1.5,0-3.1,0-4.6c-0.7-0.5-0.7-1.1-0.5-3.6c0.3-2.9,0.3-6,0.4-9c-0.1-0.5-0.3-0.7-0.5-0.8
		c-0.2,2.5-0.9,4.3-0.9,7.2c0.3,0.4,0.5,0.8,0.4,1.3c-0.1,0.5-0.4,0.8-0.3,1.6c0,0.6-0.3,1-0.7,1.2c-0.2-1.1,0.1-4.8,0.2-6.3
		c0-2.9,0-5.9,0-8.8c-0.6-0.2-0.3,1.1-0.6,1.8c0,1.1,0.1,1.5-0.5,1.8c-0.5-4.6,0.2-7.6-0.1-15.4c0-0.2-0.1-0.8-0.6-0.8
		c-0.2,6.3,0.3,12.3-0.5,18.1c0,0.9,0.1,1.9-0.1,2.9c-0.1,0.4,0.3,1.6-0.4,1.3c-0.3-0.2-0.5-0.5-0.3-0.8c0.2-0.4,0.4,0,0.3-1.1
		c0-0.7,0.2-1.1-0.2-1.6c-0.3-0.4-0.2-0.9,0.1-1.6c0.2-0.6,0.2-1.4-0.1-1.9c-0.2-0.3,0.2-0.3,0.2-1c0.4-3.6-0.9-1.6-0.6-5.2
		c0.1-0.8,0.1-1.5,0.1-2.4c0.1-4.2,0-8.8,0.1-13.1c0-0.5-0.3-0.7-0.5-0.3c-1,1.5-0.7-2.3-0.7-2.7c0-6.7-0.1-13.8,0.5-14.8
		c0-3.5-0.1-7.1-0.1-10.6c-0.5-0.4-0.6,0.8-0.6,1.1c0,0.2,0,0.3,0,0.4c0,0.4-0.6,0.5-0.6,0.1c0-0.2-0.1-0.3-0.1-0.5
		c-0.1-1.8-0.1-4.5,0.3-4.4c0.1-3,0.2-5.1,1-5.6c0.5-0.3,1.4-0.3,1.6,0.4c0.2,0.4-0.1,0.6,0.5,0.6c0.3,0,0.6,0,0.8-0.1
		c0.3-0.1,0.2-0.4,0.7-0.3c0.8,0-0.1,1.5,1.4,1.5c1.4,0,1.2-0.9,1.3-1.6c0.1-0.4,1-0.4,1.2-0.2c0.5,0.6-0.2,0.6,1,0.6
		c2.8,0.1,3.3,1.6,3.2,2.9l0,3.7c7.2-9.1,23.1-9.5,30.1,1.2c5.3,8,4.8,22.6-0.9,30.3C429.5,336.7,414,338.5,407,329.5"/>
</g>
</svg>
